<?xml version="1.0" encoding="UTF-8"?><svg id="Layer_1" xmlns="http://www.w3.org/2000/svg" viewBox="0 0 1122.64 459"><defs><style>.cls-1{font-size:154.78px;}.cls-1,.cls-2{fill:#39a461;}.cls-1,.cls-3{font-family:Bahnschrift, Bahnschrift;font-variation-settings:'wght' 400, 'wdth' 100;}.cls-4{letter-spacing:0em;}.cls-5{letter-spacing:-.04em;}.cls-2{stroke:#006837;}.cls-2,.cls-6{stroke-miterlimit:10;stroke-width:15px;}.cls-7{letter-spacing:0em;}.cls-3{fill:#662d91;font-size:68.25px;}.cls-8{letter-spacing:0em;}.cls-6{fill:#392061;stroke:#662d91;}.cls-9{letter-spacing:0em;}</style></defs><text class="cls-1" transform="translate(480.86 244.26)"><tspan x="0" y="0">P</tspan><tspan class="cls-9" x="96.36" y="0">l</tspan><tspan class="cls-8" x="140.42" y="0">ant</tspan><tspan class="cls-5" x="359.73" y="0">Y</tspan><tspan class="cls-7" x="430.77" y="0">olk</tspan></text><text class="cls-3" transform="translate(630.5 314.87)"><tspan x="0" y="0">Eggp</tspan><tspan class="cls-4" x="151.5" y="0">l</tspan><tspan x="170.93" y="0">ant Juice</tspan></text><polygon class="cls-6" points="45.64 356.5 22.64 330.5 7.64 286.5 12.64 240.5 31.64 211.5 54.14 193.87 88.64 178.5 121.64 165.5 167.14 141 187.14 124.39 198.64 102.5 205.61 94 302.14 123.26 302.14 154 302.14 187 45.64 356.5"/><polygon class="cls-6" points="50.14 358 62.14 393.5 76.14 413.5 97.14 433.5 120.14 443.5 150.14 451.5 181.64 451.5 200.64 451.5 218.82 447 239.64 441 263.14 433.5 277.24 426 300.14 414.5 314.64 404.75 341.14 384.5 364.14 363.5 383.14 345.5 411.14 310.5 427.14 285.5 445.14 254.5 450.64 221.5 337.64 162.28 312.14 184.5 284.64 196.87 244.17 203 218.82 204 188.14 204.5 144.14 205.5 110.14 216.5 88.14 234.5 68.14 256.5 50.14 290 50.14 321 50.14 358"/><polygon class="cls-2" points="188.14 115 200.14 88 219.14 73 246.14 63 246.14 52.5 246.14 40.5 239.64 21.5 246.14 7.5 261.64 7.5 267.64 7.5 276.14 21 276.14 45.5 276.14 70.5 296.14 85 305.14 101 313.14 120 313.14 136.5 304.14 141 281.14 125 271.14 132 260.64 141 245.14 150 232.14 138 225.14 127 220.14 114 188.14 115"/><path class="cls-2" d="M316.44,172.35l11.51-16.05c.83-1.15,1.96-2.06,3.26-2.61l21.83-9.29c.45-.19.91-.34,1.39-.44l22.45-4.88c.54-.12,1.09-.18,1.65-.18h13c.85,0,1.7.14,2.5.42l12.61,4.31c4.13,1.41,8.61-.87,9.91-5.04l6.67-21.5c.23-.74.35-1.52.35-2.3v-9.12c0-2.38,1.25-14.3,3.13-15.77l22.4-8c1.36-1.07,3.05-1.65,4.78-1.65h0c4.28,0,7.75,3.47,7.75,7.75v17.2c0,.57-.06,1.14-.19,1.69l-4.86,21.73c-.11.51-.28,1-.49,1.48l-13.28,29.63c-.31.7-.52,1.45-.62,2.21l-.62,4.97c-.18,1.45.05,2.92.67,4.24l11.99,25.65c.07.14.13.29.19.44l6.28,15.91c.61,1.54.71,3.23.28,4.83l-5.92,22.31c-.14.51-.32,1.01-.56,1.48l-2.97,5.94c-2.1,4.2-7.43,5.59-11.31,2.93l-1.89-1.29c-.45-.31-.87-.67-1.25-1.07l-12.63-13.33c-.24-.25-.46-.52-.66-.8l-5.16-7.16c-2.66-3.69-7.92-4.31-11.36-1.32l-9.07,7.86c-.79.69-1.72,1.21-2.72,1.53l-17.66,5.63c-.76.24-1.56.37-2.36.37h-10.6c-3.49,0-6.55-2.34-7.48-5.7l-3.95-14.41c-.15-.55-.24-1.11-.27-1.68l-1-21.07-.18-3.65c-.19-3.83-3.16-6.94-6.97-7.32l-22.49-2.25c-1.41-.14-2.75-.66-3.88-1.51l-.54-.41c-3.37-2.53-4.11-7.29-1.65-10.72Z"/></svg>