<?xml version="1.0" standalone="no"?>
<!DOCTYPE svg PUBLIC "-//W3C//DTD SVG 20010904//EN"
 "http://www.w3.org/TR/2001/REC-SVG-20010904/DTD/svg10.dtd">
<svg version="1.0" xmlns="http://www.w3.org/2000/svg"
 width="938.000000pt" height="938.000000pt" viewBox="0 0 938.000000 938.000000"
 preserveAspectRatio="xMidYMid meet">
<metadata>
Created by potrace 1.14, written by Peter Selinger 2001-2017
</metadata>
<g transform="translate(0.000000,938.000000) scale(0.100000,-0.100000)"
fill="#000000" stroke="none">
<path d="M4804 9228 c-10 -24 -18 -45 -19 -48 -1 -3 -19 -41 -40 -85 -21 -44
-39 -82 -40 -85 -1 -3 -18 -41 -38 -84 l-37 -79 21 -61 c11 -34 24 -70 29 -81
7 -18 47 -136 54 -160 2 -5 8 -21 13 -35 20 -49 26 -96 25 -215 -1 -200 4
-180 -44 -195 -24 -8 -52 -18 -63 -24 -11 -6 -22 -10 -25 -11 -6 0 -95 -32
-125 -45 -11 -4 -47 -18 -80 -30 -125 -46 -148 -57 -190 -97 -8 -7 -16 -13
-19 -13 -3 0 -14 -8 -24 -17 -10 -10 -87 -72 -170 -137 -136 -107 -155 -125
-177 -174 -14 -30 -25 -61 -25 -68 0 -8 -4 -14 -10 -14 -5 0 -10 -5 -10 -11 0
-6 -13 -40 -30 -76 -16 -35 -30 -66 -30 -68 0 -2 -16 -39 -36 -82 -20 -43 -42
-91 -49 -108 -7 -16 -23 -52 -35 -80 -12 -27 -34 -75 -47 -105 -13 -30 -31
-68 -38 -85 -7 -16 -12 -32 -10 -36 2 -3 -14 -21 -37 -40 -22 -19 -50 -43 -63
-54 -84 -76 -190 -153 -268 -195 -51 -28 -99 -54 -107 -59 -8 -6 -35 -20 -60
-33 -25 -12 -91 -48 -147 -79 -57 -31 -103 -55 -103 -53 0 3 -17 -7 -37 -21
-21 -14 -43 -25 -49 -25 -6 0 -17 -7 -24 -15 -7 -8 -16 -12 -21 -9 -5 3 -9 0
-9 -5 0 -6 -4 -11 -10 -11 -5 0 -59 -27 -119 -60 -60 -33 -131 -68 -158 -78
-26 -11 -57 -22 -68 -27 -11 -4 -24 -9 -30 -11 -5 -1 -35 -14 -66 -27 -31 -14
-59 -24 -62 -21 -2 2 -10 -2 -16 -10 -7 -8 -19 -12 -27 -9 -8 3 -14 0 -14 -7
0 -7 -7 -10 -15 -6 -8 3 -20 0 -27 -7 -7 -7 -38 -21 -68 -31 -30 -10 -64 -24
-75 -29 -11 -6 -26 -12 -33 -13 -8 -1 -30 -10 -50 -19 -20 -9 -48 -21 -62 -27
-49 -20 -137 -59 -235 -103 -33 -15 -80 -36 -105 -47 -25 -10 -58 -25 -75 -33
-16 -8 -52 -24 -80 -36 -50 -21 -137 -60 -185 -82 -14 -6 -37 -21 -51 -32 -14
-11 -38 -29 -53 -40 -16 -11 -36 -27 -45 -36 -9 -8 -37 -31 -63 -49 -27 -18
-48 -36 -48 -40 0 -3 -14 -14 -31 -24 -18 -10 -39 -26 -48 -35 -10 -9 -32 -27
-51 -41 -19 -14 -42 -33 -52 -42 -10 -10 -18 -15 -18 -12 0 3 -15 -9 -33 -27
-34 -36 -107 -143 -107 -158 0 -5 -7 -11 -15 -15 -8 -3 -15 -10 -15 -15 0 -8
-20 -40 -100 -161 -195 -292 -194 -291 -205 -419 -3 -31 -7 -69 -10 -86 -2
-16 -7 -57 -10 -90 -3 -33 -8 -71 -10 -85 -4 -23 -13 -109 -20 -200 -2 -19 -4
-35 -5 -35 -1 0 -3 -13 -4 -30 -5 -59 -20 -203 -32 -286 -5 -36 16 -122 53
-219 3 -8 7 -19 9 -25 1 -5 14 -41 27 -78 14 -37 25 -69 26 -70 0 -3 2 -8 51
-152 23 -66 43 -127 45 -135 2 -8 4 -15 4 -15 1 0 23 -64 49 -142 46 -137 64
-170 131 -242 14 -16 53 -59 86 -96 33 -37 70 -80 83 -94 13 -14 42 -48 65
-75 23 -26 58 -65 78 -87 20 -21 60 -66 90 -101 30 -34 66 -74 80 -88 14 -14
34 -50 44 -80 10 -30 20 -62 23 -70 3 -8 6 -18 7 -22 2 -5 3 -9 5 -10 1 -2 3
-10 5 -18 6 -21 46 -141 56 -165 5 -11 24 -69 44 -130 27 -82 51 -131 93 -194
31 -46 61 -92 67 -102 5 -11 13 -19 17 -19 5 0 8 -7 8 -15 0 -8 4 -15 8 -15 5
0 17 -16 28 -35 10 -19 21 -35 25 -35 3 0 14 -16 25 -35 10 -19 22 -35 26 -35
3 0 10 -9 13 -20 4 -11 43 -56 88 -100 114 -110 257 -247 257 -246 0 1 33 -30
74 -69 65 -61 88 -76 183 -115 59 -24 146 -61 193 -83 47 -21 94 -42 105 -47
35 -15 133 -49 157 -54 13 -3 84 -21 158 -41 74 -20 142 -38 150 -40 8 -2 30
-8 48 -14 18 -5 35 -10 37 -10 3 -1 6 -1 8 -2 1 0 13 -2 27 -5 14 -2 32 -7 40
-11 8 -3 22 -8 30 -11 8 -3 259 -7 558 -9 l543 -4 222 56 c122 31 227 58 232
59 6 2 36 11 69 20 32 10 64 19 70 21 6 1 18 5 26 8 14 5 176 53 210 62 8 2
15 4 15 5 0 1 7 3 15 5 32 6 156 47 173 56 10 5 22 7 27 4 6 -4 10 -2 10 3 0
5 6 9 13 9 38 2 257 81 257 93 0 4 6 7 13 7 6 0 36 14 65 31 28 17 52 28 52
24 0 -4 4 -2 8 4 4 6 131 73 282 149 247 124 402 212 422 240 4 5 8 6 8 2 0
-5 6 -2 14 6 8 7 38 29 68 48 29 18 55 36 58 39 3 3 21 16 40 30 19 13 40 28
45 32 6 5 56 43 111 86 381 291 370 281 510 411 52 47 160 146 275 251 74 68
252 236 348 330 105 103 133 135 208 235 21 28 43 55 49 60 6 6 28 33 50 60
21 28 41 52 44 55 3 3 17 21 31 40 15 19 36 46 48 60 11 14 31 38 43 54 13 15
33 39 46 53 12 13 22 27 22 31 0 4 18 27 40 52 38 42 160 214 160 226 0 4 62
100 79 120 4 5 14 21 21 34 7 13 46 75 86 137 41 62 74 114 74 117 0 2 25 46
56 97 31 51 60 103 65 114 9 21 31 57 39 65 5 5 20 32 71 125 12 22 25 42 30
45 4 3 12 17 18 30 23 54 68 119 101 146 53 44 66 61 119 164 42 82 55 116 66
165 8 32 58 222 63 235 6 18 9 29 16 55 47 198 47 221 -11 374 -24 63 -49 121
-55 128 -6 7 -8 13 -5 13 5 0 -25 78 -69 175 -10 22 -17 43 -16 48 1 4 -2 7
-7 7 -5 0 -13 10 -17 23 -3 12 -35 82 -70 155 -35 74 -64 140 -64 148 0 8 -4
14 -8 14 -28 0 -37 140 -13 188 10 20 26 56 41 92 5 14 14 32 19 40 18 29 211
472 216 496 9 41 15 68 20 89 3 11 15 68 28 128 13 59 27 104 32 100 4 -5 5
-3 2 4 -4 6 0 44 8 85 12 54 15 128 14 290 -1 215 -1 218 -29 275 -15 32 -42
73 -61 91 -69 68 -190 102 -279 80 -19 -5 -69 -23 -110 -40 -132 -54 -146 -59
-160 -62 -8 -2 -26 -7 -40 -13 -14 -5 -73 -27 -133 -48 -109 -40 -153 -69
-180 -121 -13 -26 -34 -93 -42 -134 -12 -65 -17 -110 -20 -162 -1 -32 -5 -62
-8 -65 -3 -3 -2 -15 2 -27 5 -11 5 -30 1 -41 -4 -11 -4 -30 1 -42 5 -13 5 -23
-1 -23 -5 0 -5 -12 0 -30 5 -16 5 -32 0 -35 -5 -3 -12 -20 -15 -38 -4 -17 -11
-36 -15 -42 -5 -5 -8 -13 -8 -18 -1 -19 -15 -73 -23 -82 -4 -6 -10 -22 -12
-35 -2 -14 -7 -32 -10 -40 -3 -8 -13 -40 -22 -70 -9 -30 -21 -65 -25 -77 l-9
-22 -51 19 c-28 10 -53 19 -55 19 -3 1 -6 1 -7 1 -2 1 -47 15 -101 33 -97 32
-100 32 -275 31 -97 -1 -186 -4 -197 -7 -48 -13 -262 -58 -277 -60 -10 -1 -18
-5 -18 -10 0 -4 -4 -6 -8 -3 -6 4 -75 -9 -153 -28 -16 -4 -146 -58 -224 -92
-22 -10 -42 -18 -45 -19 -3 -1 -21 -8 -40 -17 -19 -8 -71 -30 -115 -49 -109
-45 -153 -79 -200 -154 -11 -17 -25 -37 -32 -45 -23 -27 -83 -110 -83 -116 0
-2 -5 -10 -10 -17 -38 -45 -53 -65 -71 -94 -11 -18 -23 -33 -25 -33 -2 0 -4
99 -4 219 l0 220 103 51 c56 29 106 56 110 60 4 4 8 108 8 231 l1 224 -35 80
c-19 44 -58 136 -87 204 -28 68 -69 155 -90 193 -22 37 -36 68 -32 68 4 0 0 5
-8 10 -8 5 -15 13 -15 17 0 4 -20 42 -44 83 -24 41 -50 87 -58 101 -8 14 -23
29 -33 35 -38 19 -170 117 -170 125 0 5 -6 9 -12 9 -7 0 -24 9 -38 20 -14 11
-46 36 -72 56 l-48 35 0 484 c0 317 -3 485 -10 485 -5 0 -10 7 -10 15 0 8 -4
15 -8 15 -4 0 -13 12 -19 28 -7 15 -44 76 -83 135 -38 60 -70 113 -70 118 0 5
-4 9 -9 9 -5 0 -13 9 -16 20 -6 19 -15 20 -315 20 l-308 0 -18 -42z"/>
</g>
</svg>
